<?xml version="1.0" encoding="UTF-8" standalone="no"?>
<!-- Created with Inkscape (http://www.inkscape.org/) -->

<svg
   width="39.83147mm"
   height="20.001581mm"
   viewBox="0 0 39.83147 20.001581"
   version="1.1"
   id="svg1"
   xmlns="http://www.w3.org/2000/svg"
   xmlns:svg="http://www.w3.org/2000/svg">
  <defs
     id="defs1" />
  <g
     id="layer1"
     transform="translate(-7.477204e-5)">
    <ellipse
       style="fill:#262626;fill-opacity:1;stroke:none;stroke-width:0;stroke-linecap:round;stroke-linejoin:round;stroke-miterlimit:4.5"
       id="path1"
       cx="-29.96524"
       cy="9.9265327"
       transform="matrix(-0.99998768,-0.00496482,-0.00495428,0.99998773,0,0)"
       rx="9.9158535"
       ry="9.9263983" />
    <path
       style="fill:#262626;stroke-width:0;stroke-linecap:round;stroke-linejoin:round;stroke-miterlimit:4.5"
       d="M 3.3677204e-4,19.999999 C 5.5231828,19.999925 10.000278,15.522716 10.000206,9.999869 10.000132,4.4770218 5.5229218,-7.2129128e-5 7.477204e-5,0"
       id="path1-5" />
    <path
       style="fill:#262626;fill-opacity:1;stroke:none;stroke-width:0;stroke-linecap:round;stroke-linejoin:round;stroke-miterlimit:4.5"
       d="m 22.579435,10.211984 c 0,0 -0.03178,-5.5121269 0.03373,-6.7999175 -1.133711,1.4920167 -2.674442,4.2135994 -7.601969,4.26235 -3.955179,0.03913 -6.2803782,-2.9508905 -7.5593162,-4.3375442 -0.01911,1.345124 -0.03373,6.7999157 -0.03373,6.7999157"
       id="path3" />
    <path
       style="fill:#262626;fill-opacity:1;stroke:none;stroke-width:0;stroke-linecap:round;stroke-linejoin:round;stroke-miterlimit:4.5"
       d="m 22.659831,10.011985 c 0,0 -0.08691,5.51154 -0.03391,6.799916 -1.124704,-1.503188 -2.646272,-4.23992 -7.598817,-4.337543 -3.975261,-0.07837 -6.3423096,2.88845 -7.6416922,4.26235 -0.00583,-1.345248 0.033907,-6.7999168 0.033907,-6.7999168"
       id="path3-7" />
  </g>
</svg>
